<svg id="svg2" xmlns="http://www.w3.org/2000/svg" viewBox="0 0 300 300"><defs><style>.cls-1{fill:#fff;}.cls-2{fill:#4cad34;}.cls-3{fill:#5b5b5b;}</style></defs><title>parts_orig</title><rect class="cls-1" width="300" height="300"/><path class="cls-2" d="M270.5,175.73l.89-8.92c-.6-3-1.15-4-2.68-4.68.13-12.19-.92-20.46-4.24-21.18l-17.17-2.23c-12.15-5.61-24.81-12.58-35.9-15.39a151.9,151.9,0,0,0-27.21-2.9c-19.46.31-41.1-1-54.86,3.57A367.07,367.07,0,0,0,91,144.07c-16.64,1.14-50.59,5.76-55.53,11.15a29.21,29.21,0,0,0-5.35,10.93c-2.16.89-2,4.09-1.12,8l.22,8,8.25,3.35,16.28,2,.3.08A21.52,21.52,0,0,1,53,181a22.5,22.5,0,0,1,45,0,21.46,21.46,0,0,1-1.39,7.55l1.73.3,91.43-.89,1.12,1.56,4.24-.13a21.49,21.49,0,0,1-1.7-8.39,22.5,22.5,0,0,1,45,0,21.51,21.51,0,0,1-.95,6.29h.47l10.7-1.56,16.28-2.23c4.44-2.63,6.29-4.62,6.69-6.24ZM33.26,164.38A19.33,19.33,0,0,1,38.92,157l6.62.51a3,3,0,0,1,2.17,1.29l2.65,5.51Zm120.18-21.94a4.79,4.79,0,0,1-4.17,2.44l-31.46,1.29c4.48-3.05.8-8.7-3.74-7.47a59.29,59.29,0,0,1,27.73-13.36,134.51,134.51,0,0,1,18.1-1.29Zm12.21,1.87c-1.24-.26-2.54-.47-2.29-2.59l3.16-17.81h3.41c9.81,0,19.41.38,28,2.28l-2,17.07Zm45.82-1.59-14.07.49,2-16.69a45.67,45.67,0,0,1,15.8,6.87,4.72,4.72,0,0,1,2.44,4.31C216.79,141.38,214.61,142.87,211.46,142.73ZM259,157.8a35.72,35.72,0,0,1,0-8.47c.83-4.94,3.14-5.55,5.16-7,2.58.92,3.21,7.5,3.32,15.57Z" transform="translate(0)"/><rect class="cls-3" x="143.85" y="151.18" width="10.28" height="2.27" rx="0.73" ry="0.73"/><rect class="cls-3" x="198.95" y="149.84" width="10.24" height="2.11" rx="0.73" ry="0.73"/><path class="cls-3" d="M117.81,146.18c.63-.06,3.61-1.57,1.61-5.19a4.29,4.29,0,0,0-5.35-2.28S98.76,148.06,117.81,146.18Z" transform="translate(0)"/></svg>