<svg id="svg2" xmlns="http://www.w3.org/2000/svg" viewBox="0 0 300 300"><defs><style>.cls-1{fill:#fff;}.cls-2{fill:#d39926;}</style></defs><title>parts_shit</title><rect class="cls-1" width="300" height="300"/><path class="cls-2" d="M219.7,81.56a11.34,11.34,0,0,0-16,0L190,102l-5.59-5.76a7.64,7.64,0,0,0-10.51,0l-79.4,78.38a7.48,7.48,0,0,0,.06,10.59l6.36,5.95L80.68,204.64l-.38.31a11.32,11.32,0,0,0,16,16l14.31-20.79,6.23,5.83a7.45,7.45,0,0,0,10.54,0l77.33-78.36a7.45,7.45,0,0,0,0-10.49l-5.39-5.55,20-13.73.35-.29a11.34,11.34,0,0,0,0-16Zm-127,136a6.53,6.53,0,0,1-8.83-.15,6.38,6.38,0,0,1-.16-8.82l20.58-13.72,2.37,2.36ZM201.2,124.12l-77.33,78.36a2.52,2.52,0,0,1-3.57-.06L98,181.61a2.48,2.48,0,0,1,0-3.5l79.4-78.38a2.49,2.49,0,0,1,3.48,0l20.3,20.91A2.48,2.48,0,0,1,201.2,124.12ZM216.33,93.9l-20.32,14-2.36-2.37,13.72-20.58a6.53,6.53,0,0,1,8.82.16,6.38,6.38,0,0,1,.14,8.83Z" transform="translate(0)"/><path class="cls-2" d="M122.84,164.24a2.48,2.48,0,0,0-3.51,0l-12.4,12.4a2.48,2.48,0,1,0,3.51,3.51l12.4-12.4A2.48,2.48,0,0,0,122.84,164.24Z" transform="translate(0)"/><path class="cls-2" d="M137.73,164.24a2.48,2.48,0,0,0-3.51,0l-19.85,19.85a2.48,2.48,0,1,0,3.51,3.51l19.85-19.85A2.48,2.48,0,0,0,137.73,164.24Z" transform="translate(0)"/><path class="cls-2" d="M149.1,164.24l-27.29,27.29a2.48,2.48,0,1,0,3.51,3.51l27.29-27.29a2.48,2.48,0,0,0-3.51-3.51Z" transform="translate(0)"/></svg>