<svg id="svg2" xmlns="http://www.w3.org/2000/svg" viewBox="0 0 300 300"><defs><style>.cls-1{fill:#fff;}.cls-2{fill:#703d10;}</style></defs><title>parts_bear</title><rect class="cls-1" width="300" height="300"/><path class="cls-2" d="M184.44,147.66a42.47,42.47,0,0,0,11.89-29.36,41.76,41.76,0,0,0-3.16-16,17.07,17.07,0,1,0-22-23.1,48.71,48.71,0,0,0-42.34,0,17.07,17.07,0,1,0-22,23.1,41.74,41.74,0,0,0-3.16,16,42.47,42.47,0,0,0,11.89,29.36c-13,12.26-33.77,32-28.84,51.72C89,208.5,95,212.11,101.25,212.44c.45-11.67,9-21,19.49-21,10.77,0,19.51,9.83,19.51,21.95A23,23,0,0,1,133,230.47h34a23,23,0,0,1-7.25-17.07c0-12.12,8.73-21.95,19.51-21.95,10.49,0,19,9.31,19.49,21,6.3-.33,12.25-3.94,14.53-13.06C218.21,179.65,197.4,159.92,184.44,147.66Zm-72.8-54a7.31,7.31,0,1,1,8.8-9.18A45.1,45.1,0,0,0,111.63,93.68Zm57.87,21a3.66,3.66,0,1,1-3.66,3.66A3.66,3.66,0,0,1,169.51,114.64Zm-39,0a3.66,3.66,0,1,1-3.66,3.66A3.66,3.66,0,0,1,130.49,114.64ZM150,162.19c-16.16,0-29.26-8.73-29.26-19.51s13.1-19.51,29.26-19.51,29.26,8.73,29.26,19.51S166.16,162.19,150,162.19Zm29.57-77.69a7.31,7.31,0,1,1,8.8,9.18A45.07,45.07,0,0,0,179.57,84.51Z" transform="translate(0)"/></svg>