<svg id="svg2" xmlns="http://www.w3.org/2000/svg" viewBox="0 0 300 300"><defs><style>.cls-1{fill:#fff;}.cls-2{fill:#5b5b5b;}</style></defs><title>train</title><rect class="cls-1" width="300" height="300"/><path class="cls-2" d="M176.32,202.63a8.77,8.77,0,1,0,8.77-8.77A8.77,8.77,0,0,0,176.32,202.63Z" transform="translate(0 0)"/><path class="cls-2" d="M106.14,207a4.39,4.39,0,1,0,4.39-4.39A4.39,4.39,0,0,0,106.14,207Z" transform="translate(0 0)"/><path class="cls-2" d="M44.9,232.13a4.39,4.39,0,0,0,4.22,5.59A37.09,37.09,0,0,0,80,221.17l2-2.95a30.57,30.57,0,0,0,58.77-6.82h10.47A34.93,34.93,0,0,0,219,211a22,22,0,0,0,18.24-17.18h9.22v4.39a4.39,4.39,0,0,0,8.77,0V163.16a4.39,4.39,0,1,0-8.77,0v4.39h-8.77V88.6h4.39a4.39,4.39,0,0,0,4.39-4.39V75.44a13.17,13.17,0,0,0-13.16-13.16H163.16A13.17,13.17,0,0,0,150,75.44v8.77a4.39,4.39,0,0,0,4.39,4.39h4.39v35.09H141.23V110.53a13.16,13.16,0,1,0-26.32,0v13.16H98.6L106,94a4.3,4.3,0,0,0,.13-1.06V75.44A13.17,13.17,0,0,0,93,62.28H75.44A13.17,13.17,0,0,0,62.28,75.44V93A4.35,4.35,0,0,0,62.41,94l7.41,29.64H66.67c-12.5,0-21.93,18.85-21.93,43.86,0,14.75,3.33,27.24,8.6,35.1Zm170.89-90.9H180.7a4.39,4.39,0,0,1-4.39-4.39V101.75a4.39,4.39,0,0,1,4.39-4.39h35.09a4.39,4.39,0,0,1,4.39,4.39v35.09A4.39,4.39,0,0,1,215.79,141.23Zm-57,61.4a26.32,26.32,0,0,1,52.63,0,24,24,0,0,1-.3,2.89,4.3,4.3,0,0,0-.32,1.5,3.42,3.42,0,0,0,.12.52,26.23,26.23,0,0,1-51.75-1,.34.34,0,0,0,0-.1c0-.18,0-.3-.06-.47A25.85,25.85,0,0,1,158.77,202.63ZM88.6,207a21.93,21.93,0,1,1,21.93,21.93A22,22,0,0,1,88.6,207Z" transform="translate(0 0)"/></svg>