<svg id="svg2" xmlns="http://www.w3.org/2000/svg" viewBox="0 0 300 300"><defs><style>.cls-1{fill:#fff;}.cls-2,.cls-3{fill:#5b5b5b;}.cls-3,.cls-4,.cls-5{stroke:#5b5b5b;stroke-miterlimit:10;}.cls-4,.cls-6{fill:#939393;}.cls-5{fill:#b6fcfc;}.cls-7{fill:#ade0d1;}</style></defs><title>tractor</title><rect class="cls-1" width="300" height="300"/><path class="cls-2" d="M76.24,196.76H49a4,4,0,0,1-4-4V132.92a4,4,0,0,1,4-4l96.38.46a4,4,0,0,0,3.81-2.68l19.89-56.4a4,4,0,0,1,3.79-2.68h59.26a4,4,0,0,1,4,3.62l7.5,76.25q0,.2,0,.39v50.52h0a4,4,0,0,0-4.07-4Z"/><ellipse class="cls-1" cx="86.96" cy="211.48" rx="25.83" ry="25.25"/><ellipse class="cls-1" cx="214.4" cy="187.51" rx="50.19" ry="49.07"/><ellipse class="cls-3" cx="86.96" cy="211.48" rx="19.53" ry="19.1"/><ellipse class="cls-4" cx="86.96" cy="211.48" rx="13.26" ry="12.96"/><ellipse class="cls-3" cx="214.4" cy="187.51" rx="43.12" ry="42.15"/><ellipse class="cls-4" cx="214.4" cy="187.51" rx="29.27" ry="28.62"/><rect class="cls-2" x="67.22" y="85.43" width="7.81" height="56.64" rx="1.9" ry="1.9"/><path class="cls-4" d="M173.82,82.85l-8.46,29.7a6.38,6.38,0,0,0,6.11,8.15h32.95a6.38,6.38,0,0,0,6.28-7.39L206,83.62a6.37,6.37,0,0,0-6.28-5.39H179.93A6.36,6.36,0,0,0,173.82,82.85Z"/><path class="cls-5" d="M285.24,94.7"/><rect class="cls-6" x="178.45" y="131.27" width="10.35" height="2.14" rx="0.73" ry="0.73"/><path class="cls-7" d="M210.78,245.34"/></svg>