<svg id="svg2" xmlns="http://www.w3.org/2000/svg" viewBox="0 0 300 300"><defs><style>.cls-1{fill:#fff;}.cls-2{fill:#5b5b5b;}</style></defs><title>bus</title><rect class="cls-1" width="300" height="300"/><path class="cls-2" d="M81.68,173.37a22.81,22.81,0,1,0,22.81,22.81A22.8,22.8,0,0,0,81.68,173.37Zm0,32.72a9.91,9.91,0,1,1,9.92-9.91A9.91,9.91,0,0,1,81.68,206.1Z" transform="translate(0)"/><path class="cls-2" d="M215.59,173.37a22.81,22.81,0,1,0,22.81,22.81A22.8,22.8,0,0,0,215.59,173.37Zm0,32.72a9.91,9.91,0,1,1,9.92-9.91A9.91,9.91,0,0,1,215.59,206.1Z" transform="translate(0)"/><path class="cls-2" d="M259.12,81H54.52A17.45,17.45,0,0,0,38.16,94.37L30,124.22a162.93,162.93,0,0,0-2.73,27v31.35a13.67,13.67,0,0,0,13.63,13.63h13.9a26.9,26.9,0,0,1,53.8,0h80.11a26.9,26.9,0,0,1,53.8,0h16.63a13.67,13.67,0,0,0,13.63-13.63V94.64A13.66,13.66,0,0,0,259.12,81ZM83.9,138.52H52.13l5-11.92a4.09,4.09,0,1,0-7.53-3.18L43.39,138.2a8.13,8.13,0,0,1-5.91-9.73l7.33-29.24A12.81,12.81,0,0,1,56.9,89.18h27v49.34Zm60.65,0H92.07V89.18h52.47Zm60.65,0H152.72V89.18H205.2Zm59.19-10.22a10.25,10.25,0,0,1-10.22,10.22H213.37V89.18h40.79A10.25,10.25,0,0,1,264.39,99.4Z" transform="translate(0)"/></svg>