<svg id="svg2" xmlns="http://www.w3.org/2000/svg" viewBox="0 0 300 300"><defs><style>.cls-1{fill:#fff;}.cls-2{fill:#5b5b5b;}</style></defs><title>plane</title><rect class="cls-1" width="300" height="300"/><path class="cls-2" d="M228.08,103.9,210.82,102c0-.11,0-.21,0-.32V93c0-6.06-4.85-7.55-9-7.92V81c0-.08,0-.16,0-.24,17.79-.06,17.79-.55,17.79-2.09s0-2.1-21.76-2.1-21.76.44-21.76,2.1,0,2,18.78,2.09c0,.08,0,.16,0,.24v4.08c-3.9.29-8,1.65-8,8v6.23l-8.41-.94c-3-.33-7-.67-11-.92-1.82-15.46-6.26-35.41-17-35.41h-.69c-10.77,0-15.22,19.95-17,35.45-3.87.24-7.64.56-10.38.86l-8.4.94V93c0-6-4.1-7.54-8-7.92V81c0-.08,0-.16,0-.24,17.78-.06,17.78-.55,17.78-2.09s0-2.1-21.76-2.1-21.76.44-21.76,2.1,0,2,18.79,2.09c0,.08,0,.16,0,.24v4.08c-4.13.28-9,1.63-9,8v8.6c0,.1,0,.19,0,.29l-17.92,2c-6.54.72-13.16,3.85-13.16,8.44s6.37,8.52,12.3,10.33l19.34,5.82a11.84,11.84,0,1,0,23.09,5.1c2.65.25,5.14.39,7.17.39h11.69c1.15,17.63,3.39,44.29,7.33,64.46.17.89.35,1.95.54,3.11-11.29.93-23.51,3.62-23.51,9.72,0,6.61,14.32,9.21,26.28,9.92,2.12,14.18,3.37,16.79,6.36,16.79h1.25c3,0,4.24-2.6,6.36-16.78,12-.69,26.46-3.29,26.46-9.93,0-6.14-12.34-8.82-23.68-9.74.18-1.15.36-2.19.53-3.08,3.94-20.14,6.18-46.8,7.33-64.47h12.09c1.85,0,4.07-.11,6.45-.32a11.84,11.84,0,1,0,23.14-5L229,122.84c6.1-1.88,12.28-6.06,12.28-10.41C241.23,107.79,234.61,104.63,228.08,103.9Z"/></svg>