<svg id="svg2" xmlns="http://www.w3.org/2000/svg" viewBox="0 0 300 300"><defs><style>.cls-1{fill:#fff;}.cls-2{fill:#939393;}.cls-3{fill:#5b5b5b;}.cls-4{fill:#ade0d1;}</style></defs><title>car_answ</title><rect class="cls-1" width="300" height="300"/><g id="Layer_2" data-name="Layer 2"><path id="path2220" class="cls-2" d="M267.45,152.23l-.86,8.63,1.08,1.51c-.39,1.57-2.18,3.49-6.47,6l-15.75,2.16-10.36,1.51h-3.45c-6.2,10.7-25.7,10.51-35.17,1.94l-6.9.22-1.08-1.51-88.46.86-5-.86C89,185.58,66.92,187.31,61,173.37l-4.1-1.08-15.75-1.94-8-3.24-.22-7.77c-.86-3.81-1-6.9,1.08-7.77A28.26,28.26,0,0,1,39.18,141c4.77-5.21,37.63-9.69,53.72-10.79A355.15,355.15,0,0,1,130,110.8c13.31-4.44,34.25-3.15,53.08-3.45a147,147,0,0,1,26.32,2.8c10.73,2.71,23,9.46,34.74,14.89l16.61,2.16c3.21.7,4.22,8.7,4.1,20.5C266.34,148.37,266.87,149.3,267.45,152.23ZM166,110.72l-3.06,17.23c-.24,2.06,1,2.25,2.22,2.51l29.32-1,1.95-16.52c-8.35-1.84-17.64-2.19-27.13-2.21Zm29.88,18.68,13.61-.47c3,.14,5.15-1.3,6-4.87a4.56,4.56,0,0,0-2.36-4.17,44.19,44.19,0,0,0-15.28-6.65Zm-53.79-17.28A57.36,57.36,0,0,0,115.24,125c4.38-1.19,8,4.27,3.61,7.23L149.29,131a4.63,4.63,0,0,0,4-2.36l6.25-17.79A130.14,130.14,0,0,0,142.06,112.11Zm113.32,23.2a34.56,34.56,0,0,0,0,8.2l8.16.07c-.1-7.82-.71-14.17-3.21-15.07C258.42,129.94,256.18,130.53,255.38,135.31Zm-48.09,1.63a1.11,1.11,0,0,1-1.11,1.11h-7.73a1.11,1.11,0,1,1,0-2.22h7.73A1.11,1.11,0,0,1,207.29,136.94ZM154,138.21a1.11,1.11,0,0,1-1.11,1.11h-7.73a1.11,1.11,0,0,1,0-2.22h7.73A1.11,1.11,0,0,1,154,138.21Zm59.72,15.84a12.8,12.8,0,1,1-12.8,12.8A12.8,12.8,0,0,1,213.72,154.05ZM77.08,152.43a12.8,12.8,0,1,1-12.8,12.8A12.8,12.8,0,0,1,77.08,152.43Zm-26.06-8a2.91,2.91,0,0,0-2.1-1.24l-6.4-.5A18.7,18.7,0,0,0,37,149.87l16.54-.11Zm102.25-5.11h-8.5a.73.73,0,0,1-.72-.72v-.77a.73.73,0,0,1,.72-.72h8.5a.73.73,0,0,1,.72.72v.77A.73.73,0,0,1,153.27,139.32Z"/><ellipse class="cls-1" cx="77.93" cy="165.99" rx="21.77" ry="21.28"/><ellipse class="cls-1" cx="213.78" cy="165.99" rx="21.77" ry="21.28"/><rect class="cls-3" x="144.05" y="137.1" width="9.94" height="2.2" rx="0.73" ry="0.73"/><rect class="cls-3" x="197.36" y="135.81" width="9.91" height="2.04" rx="0.73" ry="0.73"/><path class="cls-4" d="M181.91,192.65"/><path class="cls-3" d="M118.85,132.26c.61-.06,3.49-1.51,1.56-5a4.15,4.15,0,0,0-5.17-2.21S100.43,134.08,118.85,132.26Z"/></g></svg>