<svg id="svg2" xmlns="http://www.w3.org/2000/svg" viewBox="0 0 167.83 56.99"><defs><style>.cls-1{fill:#b5b5b5;}.cls-2{fill:#fff;}.cls-3{fill:#565656;}.cls-4{fill:#ade0d1;}.cls-5{fill:#5b5b5b;}</style></defs><title>car_sceleton_01</title><path id="path2220" class="cls-1" d="M167.67,32l-.62,6.15.77,1.08c-.28,1.12-1.55,2.49-4.62,4.31L152,45.08l-7.39,1.08h-2.46c-4.42,7.63-18.33,7.49-25.08,1.38l-4.92.15-.77-1.08-63.08.62-3.54-.62c-4.34,9.17-20.07,10.4-24.31.46l-2.92-.77L6.27,44.93.58,42.62.42,37.08c-.61-2.72-.72-4.92.77-5.54A20.15,20.15,0,0,1,4.89,24c3.4-3.72,26.83-6.91,38.31-7.69A253.27,253.27,0,0,1,69.66,2.46C79.16-.7,94.09.21,107.51,0a104.81,104.81,0,0,1,18.77,2c7.66,1.93,16.39,6.75,24.77,10.62l11.85,1.54c2.29.5,3,6.21,2.92,14.62C166.88,29.25,167.26,29.92,167.67,32ZM95.3,2.4,93.12,14.69c-.17,1.47.72,1.61,1.58,1.79l20.91-.73L117,4c-6-1.31-12.58-1.56-19.35-1.57Zm21.31,13.32,9.71-.34c2.17.1,3.67-.93,4.26-3.47a3.26,3.26,0,0,0-1.68-3A31.51,31.51,0,0,0,118,4.2ZM78.25,3.4a40.91,40.91,0,0,0-19.13,9.22c3.13-.85,5.67,3,2.58,5.15l21.71-.89a3.3,3.3,0,0,0,2.87-1.69L90.74,2.5A92.81,92.81,0,0,0,78.25,3.4Zm80.81,16.54a24.64,24.64,0,0,0,0,5.85l5.82,0c-.07-5.57-.51-10.11-2.29-10.75C161.23,16.11,159.63,16.53,159.06,19.94Zm-34.3,1.16a.79.79,0,0,1-.79.79h-5.51a.79.79,0,1,1,0-1.58H124A.79.79,0,0,1,124.77,21.1Zm-38,.91a.79.79,0,0,1-.79.79H80.46a.79.79,0,0,1,0-1.58H86A.79.79,0,0,1,86.76,22Zm42.59,11.3a9.13,9.13,0,1,1-9.13,9.13A9.13,9.13,0,0,1,129.35,33.31ZM31.91,32.15a9.13,9.13,0,1,1-9.13,9.13A9.13,9.13,0,0,1,31.91,32.15Zm-18.58-5.7a2.07,2.07,0,0,0-1.5-.89L7.27,25.2a13.34,13.34,0,0,0-3.91,5.12l11.79-.08ZM86,22.8H80.4a.73.73,0,0,1-.72-.72v-.13a.73.73,0,0,1,.72-.72H86a.73.73,0,0,1,.72.72v.13A.73.73,0,0,1,86,22.8Z" transform="translate(0 0)"/><g id="Layer_2" data-name="Layer 2"><ellipse class="cls-2" cx="32.52" cy="41.82" rx="15.52" ry="15.17"/><ellipse class="cls-2" cx="129.4" cy="41.82" rx="15.52" ry="15.17"/><rect class="cls-3" x="79.67" y="21.22" width="7.09" height="1.57" rx="0.73" ry="0.73"/><rect class="cls-3" x="117.69" y="20.29" width="7.07" height="1.46" rx="0.73" ry="0.73"/></g><path class="cls-4" d="M106.67,60.83" transform="translate(0 0)"/><path class="cls-5" d="M61.7,17.77c.44,0,2.49-1.08,1.11-3.58a3,3,0,0,0-3.69-1.57S48.56,19.06,61.7,17.77Z" transform="translate(0 0)"/></svg>