<svg id="svg2" xmlns="http://www.w3.org/2000/svg" viewBox="0 0 300 300"><defs><style>.cls-1{fill:#fff;}.cls-2{fill:#939393;}.cls-3{fill:#5b5b5b;}</style></defs><title>boat</title><rect class="cls-1" width="300" height="300"/><path class="cls-2" d="M118,74.58a153.92,153.92,0,0,0-19.42,32.47c-5.95,13.78-9,27.55-9,40.92v5.6h54.3V47A191.85,191.85,0,0,0,118,74.58Z"/><path class="cls-3" d="M154.82,191.51h0V178.64h63.85v-5.33c0-15.28-3.45-31-10.26-46.78a176.48,176.48,0,0,0-22.28-37.25,216.48,216.48,0,0,0-31.31-33V157.69H144.17v33.81H71.5v7.35A39.19,39.19,0,0,0,110.64,238h78.72a39.19,39.19,0,0,0,39.15-39.15v-7.35H154.82Z"/></svg>