<svg xmlns="http://www.w3.org/2000/svg" viewBox="2022.573 41 131.536 18.7">
  <defs>
    <style>
      .cls-1 {
        fill: #022a7f;
      }

      .cls-2 {
        fill: #fff;
      }

      .cls-3 {
        fill: #2e2e2e;
      }
    </style>
  </defs>
  <g id="logo_cora" transform="translate(2022.573 41)">
    <g id="XMLID_234_" transform="translate(115.031 0.173)">
      <path id="XMLID_236_" class="cls-1" d="M651.519,276.474a1.463,1.463,0,0,0,1.464,1.464h6.24a.722.722,0,0,0,.212-.019.832.832,0,0,0,.1-.019,9.117,9.117,0,0,0-.173-18.2h-5.623a2.236,2.236,0,0,0-2.234,2.234v14.54Z" transform="translate(-651.5 -259.7)"/>
      <path id="XMLID_235_" class="cls-2" d="M679.386,282.635a.6.6,0,0,1-.578-.5,5.175,5.175,0,0,0-4.583-4.141H670.8a.6.6,0,0,1-.6-.6h0a.6.6,0,0,1,.6-.6h3.312A6.27,6.27,0,0,1,680,281.961a.612.612,0,0,1-.616.674Z" transform="translate(-666.599 -273.507)"/>
    </g>
    <g id="XMLID_28_" transform="translate(0 0)">
      <path id="XMLID_32_" class="cls-3" d="M58.629,276.344a8.025,8.025,0,0,1-3.255-3.255,11.014,11.014,0,0,1,0-9.9,8.144,8.144,0,0,1,3.255-3.255A9.6,9.6,0,0,1,63.29,258.8a10.627,10.627,0,0,1,3.158.424,13.252,13.252,0,0,1,2.773,1.194,1.048,1.048,0,0,1,.578.982,1.011,1.011,0,0,1-.289.693,1.03,1.03,0,0,1-.751.308,1.163,1.163,0,0,1-.462-.1,11.821,11.821,0,0,0-2.234-.905,9.048,9.048,0,0,0-2.523-.308,7.457,7.457,0,0,0-3.813.924,6.1,6.1,0,0,0-2.369,2.523,8.7,8.7,0,0,0,0,7.241,5.863,5.863,0,0,0,2.369,2.523,7.359,7.359,0,0,0,3.813.924,9.142,9.142,0,0,0,2.523-.308,13.259,13.259,0,0,0,2.234-.905.907.907,0,0,1,.462-.1,1.016,1.016,0,0,1,.751.289.945.945,0,0,1,.289.693,1.029,1.029,0,0,1-.578.982,13.251,13.251,0,0,1-2.773,1.194,11.291,11.291,0,0,1-3.158.424A10.056,10.056,0,0,1,58.629,276.344Z" transform="translate(-54.2 -258.8)"/>
      <path id="XMLID_34_" class="cls-3" d="M149.652,276.348a8.3,8.3,0,0,1-3.178-3.293,10.532,10.532,0,0,1,0-9.668,8.175,8.175,0,0,1,3.178-3.293,10.149,10.149,0,0,1,9.552,0,8.224,8.224,0,0,1,3.178,3.312,10.346,10.346,0,0,1,1.175,4.815,10.524,10.524,0,0,1-1.175,4.815,8.224,8.224,0,0,1-3.178,3.312,9.351,9.351,0,0,1-4.776,1.194A9.212,9.212,0,0,1,149.652,276.348Zm8.4-1.945a5.945,5.945,0,0,0,2.33-2.542,8.594,8.594,0,0,0,0-7.28,6.066,6.066,0,0,0-2.33-2.542,6.9,6.9,0,0,0-3.621-.944,6.629,6.629,0,0,0-3.621.944,6.439,6.439,0,0,0-2.33,2.542,8.594,8.594,0,0,0,0,7.28,6.066,6.066,0,0,0,2.33,2.542,7.417,7.417,0,0,0,7.241,0Z" transform="translate(-127.756 -258.881)"/>
      <path id="XMLID_40_" class="cls-3" d="M260.947,278.13a1.12,1.12,0,0,1-.347-.828V261.394a1.163,1.163,0,0,1,.347-.847,1.12,1.12,0,0,1,.828-.347h6.066a8.119,8.119,0,0,1,5.3,1.464,4.722,4.722,0,0,1,1.772,3.813,5.017,5.017,0,0,1-.867,2.85A4.817,4.817,0,0,1,271.5,270.2a3.554,3.554,0,0,1,2.561,2.33,10.117,10.117,0,0,1,.693,3.6v1.194a1.09,1.09,0,0,1-.347.828,1.12,1.12,0,0,1-.828.347,1.176,1.176,0,0,1-.867-.327,1.162,1.162,0,0,1-.327-.847v-.77a11.741,11.741,0,0,0-.231-2.407,3.9,3.9,0,0,0-1.117-1.984,3.7,3.7,0,0,0-2.677-.867h-5.373V277.3a1.09,1.09,0,0,1-.347.828,1.245,1.245,0,0,1-.847.347A1.1,1.1,0,0,1,260.947,278.13Zm6.721-9.09a6.189,6.189,0,0,0,3.544-.886,2.871,2.871,0,0,0,1.31-2.5,2.8,2.8,0,0,0-1.136-2.388,6.679,6.679,0,0,0-3.852-.828H262.95v6.606Z" transform="translate(-220.851 -259.93)"/>
      <path id="XMLID_58_" class="cls-3" d="M350.727,277.484a1.181,1.181,0,0,1-.327-.828,1.292,1.292,0,0,1,.135-.52l6.625-15.657a2.085,2.085,0,0,1,.578-.77,1.482,1.482,0,0,1,.924-.308h.27a1.376,1.376,0,0,1,.924.308,1.941,1.941,0,0,1,.578.77l6.625,15.657a1.721,1.721,0,0,1,.135.52,1.148,1.148,0,0,1-.327.828,1.209,1.209,0,0,1-1.5.154,1.409,1.409,0,0,1-.462-.539l-1.695-4.064h-8.84l-1.695,4.064a1.146,1.146,0,0,1-.462.539,1.133,1.133,0,0,1-.655.193A1.09,1.09,0,0,1,350.727,277.484Zm4.564-6.606h7.029l-3.524-8.455Z" transform="translate(-293.356 -259.284)"/>
      <path id="XMLID_64_" class="cls-3" d="M492.982,277.295a1.572,1.572,0,0,1-.482-1.155V260.694a1.163,1.163,0,0,1,.347-.847,1.12,1.12,0,0,1,.828-.347,1.184,1.184,0,0,1,1.194,1.194v14.713h8.512a1.184,1.184,0,0,1,1.194,1.194,1.09,1.09,0,0,1-.347.828,1.163,1.163,0,0,1-.847.347h-9.244A1.571,1.571,0,0,1,492.982,277.295Z" transform="translate(-408.09 -259.365)"/>
      <path id="XMLID_67_" class="cls-3" d="M570.647,277.995a1.12,1.12,0,0,1-.347-.828V261.394a1.163,1.163,0,0,1,.347-.847,1.12,1.12,0,0,1,.828-.347h10.419a1.118,1.118,0,0,1,1.117,1.117,1.017,1.017,0,0,1-.327.77,1.074,1.074,0,0,1-.79.308h-9.225v5.739h8.3a1.118,1.118,0,0,1,1.117,1.117,1.017,1.017,0,0,1-.327.77,1.074,1.074,0,0,1-.79.308h-8.3v5.777h9.225a1.118,1.118,0,0,1,1.117,1.117,1.017,1.017,0,0,1-.327.77,1.074,1.074,0,0,1-.79.308H571.475A.943.943,0,0,1,570.647,277.995Z" transform="translate(-470.907 -259.93)"/>
    </g>
  </g>
</svg>
