<svg xmlns="http://www.w3.org/2000/svg" viewBox="2132.573 4129 169.227 24.059">
  <defs>
    <style>
      .cls-1 {
        fill: #fff;
      }

      .cls-2 {
        fill: #022a7f;
      }
    </style>
  </defs>
  <g id="logo_cora" transform="translate(2132.573 4129)">
    <g id="XMLID_234_" transform="translate(147.993 0.223)">
      <path id="XMLID_236_" class="cls-1" d="M651.525,281.281a1.882,1.882,0,0,0,1.883,1.883h8.028a.929.929,0,0,0,.273-.025,1.069,1.069,0,0,0,.124-.025,11.73,11.73,0,0,0-.223-23.414h-7.235a2.876,2.876,0,0,0-2.874,2.874v18.707Z" transform="translate(-651.5 -259.7)"/>
      <path id="XMLID_235_" class="cls-2" d="M682.019,284.307a.771.771,0,0,1-.743-.644,6.658,6.658,0,0,0-5.9-5.327h-4.41a.772.772,0,0,1-.768-.768h0a.772.772,0,0,1,.768-.768h4.262a8.067,8.067,0,0,1,7.582,6.64.787.787,0,0,1-.793.867Z" transform="translate(-665.567 -272.563)"/>
    </g>
    <g id="XMLID_28_" transform="translate(0 0)">
      <path id="XMLID_32_" class="cls-1" d="M59.9,281.372a10.325,10.325,0,0,1-4.187-4.187,14.17,14.17,0,0,1,0-12.735,10.478,10.478,0,0,1,4.187-4.187,12.345,12.345,0,0,1,6-1.462,13.671,13.671,0,0,1,4.063.545,17.047,17.047,0,0,1,3.568,1.536,1.348,1.348,0,0,1,.743,1.264,1.3,1.3,0,0,1-.372.892,1.325,1.325,0,0,1-.966.4,1.5,1.5,0,0,1-.595-.124,15.21,15.21,0,0,0-2.874-1.165,11.641,11.641,0,0,0-3.246-.4,9.593,9.593,0,0,0-4.906,1.189,7.847,7.847,0,0,0-3.048,3.246,11.187,11.187,0,0,0,0,9.316,7.543,7.543,0,0,0,3.048,3.246,9.468,9.468,0,0,0,4.906,1.189,11.762,11.762,0,0,0,3.246-.4,17.058,17.058,0,0,0,2.874-1.165,1.167,1.167,0,0,1,.595-.124,1.307,1.307,0,0,1,.966.372,1.216,1.216,0,0,1,.372.892,1.324,1.324,0,0,1-.743,1.264,17.05,17.05,0,0,1-3.568,1.536,14.527,14.527,0,0,1-4.063.545A12.938,12.938,0,0,1,59.9,281.372Z" transform="translate(-54.2 -258.8)"/>
      <path id="XMLID_34_" class="cls-1" d="M150.9,281.348a10.675,10.675,0,0,1-4.088-4.237,13.551,13.551,0,0,1,0-12.438,10.517,10.517,0,0,1,4.088-4.237,13.057,13.057,0,0,1,12.289,0,10.58,10.58,0,0,1,4.088,4.262,13.311,13.311,0,0,1,1.511,6.194,13.539,13.539,0,0,1-1.511,6.194,10.58,10.58,0,0,1-4.088,4.262,12.031,12.031,0,0,1-6.145,1.536A11.851,11.851,0,0,1,150.9,281.348Zm10.8-2.5a7.648,7.648,0,0,0,3-3.271,11.057,11.057,0,0,0,0-9.366,7.8,7.8,0,0,0-3-3.271,8.871,8.871,0,0,0-4.658-1.214,8.529,8.529,0,0,0-4.658,1.214,8.285,8.285,0,0,0-3,3.271,11.057,11.057,0,0,0,0,9.366,7.8,7.8,0,0,0,3,3.271,9.543,9.543,0,0,0,9.316,0Z" transform="translate(-122.728 -258.875)"/>
      <path id="XMLID_40_" class="cls-1" d="M261.046,283.267a1.441,1.441,0,0,1-.446-1.065V261.736a1.5,1.5,0,0,1,.446-1.09,1.441,1.441,0,0,1,1.065-.446h7.8c3.023,0,5.3.619,6.814,1.883a6.075,6.075,0,0,1,2.279,4.906,6.455,6.455,0,0,1-1.115,3.667,6.2,6.2,0,0,1-3.271,2.4,4.572,4.572,0,0,1,3.3,3,13.016,13.016,0,0,1,.892,4.633v1.536a1.4,1.4,0,0,1-.446,1.065,1.441,1.441,0,0,1-1.065.446,1.514,1.514,0,0,1-1.115-.421,1.5,1.5,0,0,1-.421-1.09v-.991a15.1,15.1,0,0,0-.3-3.1,5.019,5.019,0,0,0-1.437-2.552,4.759,4.759,0,0,0-3.444-1.115h-6.913v7.73a1.4,1.4,0,0,1-.446,1.065,1.6,1.6,0,0,1-1.09.446A1.419,1.419,0,0,1,261.046,283.267Zm8.647-11.695a7.963,7.963,0,0,0,4.559-1.14,3.693,3.693,0,0,0,1.685-3.221,3.6,3.6,0,0,0-1.462-3.072c-.966-.718-2.626-1.065-4.955-1.065h-5.9v8.5Z" transform="translate(-209.46 -259.853)"/>
      <path id="XMLID_58_" class="cls-1" d="M350.821,282.666a1.519,1.519,0,0,1-.421-1.065,1.662,1.662,0,0,1,.173-.669l8.523-20.144a2.683,2.683,0,0,1,.743-.991,1.907,1.907,0,0,1,1.189-.4h.347a1.77,1.77,0,0,1,1.189.4,2.5,2.5,0,0,1,.743.991l8.523,20.144a2.214,2.214,0,0,1,.173.669,1.477,1.477,0,0,1-.421,1.065,1.556,1.556,0,0,1-1.933.2,1.813,1.813,0,0,1-.595-.694l-2.18-5.228H355.5l-2.18,5.228a1.474,1.474,0,0,1-.595.694,1.458,1.458,0,0,1-.842.248A1.4,1.4,0,0,1,350.821,282.666Zm5.872-8.5h9.044L361.2,263.29Z" transform="translate(-277.01 -259.251)"/>
      <path id="XMLID_64_" class="cls-1" d="M493.12,282.394a2.022,2.022,0,0,1-.62-1.487V261.036a1.5,1.5,0,0,1,.446-1.09,1.441,1.441,0,0,1,1.065-.446,1.523,1.523,0,0,1,1.536,1.536v18.93H506.5a1.523,1.523,0,0,1,1.536,1.536,1.4,1.4,0,0,1-.446,1.065,1.5,1.5,0,0,1-1.09.446H494.606A2.022,2.022,0,0,1,493.12,282.394Z" transform="translate(-383.902 -259.327)"/>
      <path id="XMLID_67_" class="cls-1" d="M570.746,283.094a1.441,1.441,0,0,1-.446-1.065V261.736a1.5,1.5,0,0,1,.446-1.09,1.441,1.441,0,0,1,1.065-.446h13.4a1.438,1.438,0,0,1,1.437,1.437,1.308,1.308,0,0,1-.421.991,1.382,1.382,0,0,1-1.016.4H573.348v7.384h10.679a1.438,1.438,0,0,1,1.437,1.437,1.308,1.308,0,0,1-.421.991,1.382,1.382,0,0,1-1.016.4H573.348v7.433h11.868a1.438,1.438,0,0,1,1.437,1.437,1.308,1.308,0,0,1-.421.991,1.382,1.382,0,0,1-1.016.4h-13.4A1.213,1.213,0,0,1,570.746,283.094Z" transform="translate(-442.426 -259.853)"/>
    </g>
  </g>
</svg>
