<svg xmlns="http://www.w3.org/2000/svg" viewBox="2648 1238 50 50.001">
  <defs>
    <style>
      .cls-1 {
        fill: #2e2e2e;
      }
    </style>
  </defs>
  <g id="school-material" transform="translate(2647.996 1238)">
    <g id="Group_7" data-name="Group 7" transform="translate(0.004)">
      <g id="Group_6" data-name="Group 6" transform="translate(0)">
        <path id="Path_30" data-name="Path 30" class="cls-1" d="M152.363,0H140.7a4.172,4.172,0,0,0-4.167,4.167v30a.833.833,0,0,0,.833.833h5a.833.833,0,1,0,0-1.667H138.2V31.667h.833a.833.833,0,1,0,0-1.667H138.2V28.334h.833a.833.833,0,1,0,0-1.667H138.2V25h.833a.833.833,0,0,0,0-1.667H138.2V21.667h4.167a.833.833,0,0,0,0-1.667H138.2V18.334h.833a.833.833,0,0,0,0-1.667H138.2V15h.833a.833.833,0,0,0,0-1.667H138.2V11.667h.833a.833.833,0,0,0,0-1.667H138.2V8.333h4.167a.833.833,0,0,0,0-1.667H138.2v-2.5a2.5,2.5,0,0,1,2.5-2.5h11.667a2.5,2.5,0,0,1,2.5,2.5V45.834a2.5,2.5,0,0,1-2.5,2.5H140.7a2.5,2.5,0,0,1-2.5-2.5V37.5a.833.833,0,1,0-1.667,0v8.333A4.172,4.172,0,0,0,140.7,50h11.667a4.172,4.172,0,0,0,4.167-4.167V4.167A4.172,4.172,0,0,0,152.363,0Z" transform="translate(-123.196)"/>
        <path id="Path_31" data-name="Path 31" class="cls-1" d="M34.138,103.225v30a.833.833,0,0,0,1.667,0v-30a.833.833,0,1,0-1.667,0Z" transform="translate(-30.805 -92.393)"/>
        <path id="Path_32" data-name="Path 32" class="cls-1" d="M4.916.794a.867.867,0,0,0-1.491,0L.092,7.461A.835.835,0,0,0,0,7.834V46.167a4.167,4.167,0,0,0,8.334,0V44.5a.833.833,0,0,0-.833-.833H4.171a.833.833,0,1,0,0,1.667h2.5v.833a2.5,2.5,0,0,1-5,0V8.03l2.5-5L6.156,7H4.171a.833.833,0,1,0,0,1.667h2.5v32.5a.833.833,0,0,0,1.667,0V7.82a.84.84,0,0,0-.1-.374Z" transform="translate(-0.004 -0.334)"/>
        <path id="Path_33" data-name="Path 33" class="cls-1" d="M211.463,395.867a3.333,3.333,0,1,0-3.333,3.333A3.337,3.337,0,0,0,211.463,395.867Zm-5,0a1.667,1.667,0,1,1,1.667,1.667A1.668,1.668,0,0,1,206.463,395.867Z" transform="translate(-184.796 -354.2)"/>
        <path id="Path_34" data-name="Path 34" class="cls-1" d="M396.7,332.6a.833.833,0,0,0,0,1.667h6.667a.833.833,0,0,0,.833-.833v-5a4.172,4.172,0,0,0-4.167-4.167H396.7a4.171,4.171,0,0,0-4.167,4.167v10A4.171,4.171,0,0,0,396.7,342.6h3.333a4.172,4.172,0,0,0,4.167-4.167v-1.667a.833.833,0,1,0-1.667,0v1.667a2.5,2.5,0,0,1-2.5,2.5H396.7a2.5,2.5,0,0,1-2.5-2.5v-10a2.5,2.5,0,0,1,2.5-2.5h3.333a2.5,2.5,0,0,1,2.5,2.5V332.6Z" transform="translate(-354.196 -292.599)"/>
      </g>
    </g>
  </g>
</svg>
