<svg xmlns="http://www.w3.org/2000/svg" viewBox="2291 1238 50 49.996">
  <defs>
    <style>
      .cls-1 {
        fill: #2e2e2e;
      }
    </style>
  </defs>
  <g id="handshake" transform="translate(2291 1237.977)">
    <g id="Group_5" data-name="Group 5" transform="translate(0 0.023)">
      <g id="Group_4" data-name="Group 4" transform="translate(0 0)">
        <path id="Path_21" data-name="Path 21" class="cls-1" d="M136.425,86.175a1.653,1.653,0,0,0,.489,1.178l.589.589a4.167,4.167,0,0,0,5.892,0l4.151-4.151a9.1,9.1,0,0,0,5.863,2.121h0A9.125,9.125,0,0,0,159.9,83.22a.833.833,0,1,0-1.178-1.178,7.469,7.469,0,0,1-5.311,2.2h0a7.448,7.448,0,0,1-5.3-2.2.834.834,0,0,0-1.178,0l-4.715,4.714a2.56,2.56,0,0,1-3.535,0l-.589-.589L148.11,76.158a3.534,3.534,0,0,1,2.946-.934,5.163,5.163,0,0,0,4.125-1.422l2.357-2.357a.833.833,0,1,0-1.178-1.178L154,72.623a3.537,3.537,0,0,1-2.947.934,5.161,5.161,0,0,0-4.124,1.422L136.915,85A1.654,1.654,0,0,0,136.425,86.175Z" transform="translate(-123.102 -63.186)"/>
        <path id="Path_22" data-name="Path 22" class="cls-1" d="M61.4,63.09a1.667,1.667,0,1,0-1.667-1.667A1.668,1.668,0,0,0,61.4,63.09Z" transform="translate(-53.902 -53.924)"/>
        <path id="Path_23" data-name="Path 23" class="cls-1" d="M157.281,107.652l2.357,2.357a.833.833,0,1,0,1.178-1.178l-2.357-2.357a.833.833,0,1,0-1.178,1.178Z" transform="translate(-141.701 -95.857)"/>
        <path id="Path_24" data-name="Path 24" class="cls-1" d="M419.8,28.957a1.667,1.667,0,1,0-1.667-1.667A1.669,1.669,0,0,0,419.8,28.957Z" transform="translate(-377.302 -23.124)"/>
        <path id="Path_25" data-name="Path 25" class="cls-1" d="M403.9,179.467c-1.354,1.354-1.819,3.56-2.268,5.693-.4,1.893-.811,3.852-1.814,4.856l-1.179,1.178a.833.833,0,0,0,1.179,1.178l1.178-1.178c1.353-1.353,1.817-3.558,2.267-5.691.4-1.9.813-3.854,1.816-4.858a.833.833,0,0,0-1.178-1.178Z" transform="translate(-359.488 -161.723)"/>
        <path id="Path_26" data-name="Path 26" class="cls-1" d="M365.456,17.767,351.878,4.19l2.744-2.744A.833.833,0,0,0,353.444.267L350.111,3.6a.832.832,0,0,0,0,1.178l14.167,14.167a.833.833,0,1,0,1.178-1.178Z" transform="translate(-315.7 -0.023)"/>
        <path id="Path_27" data-name="Path 27" class="cls-1" d="M77.1,217.28a.834.834,0,1,0-1.178,1.179l8.838,8.838a1.667,1.667,0,0,1-2.358,2.357l-8.838-8.839a.833.833,0,0,0-1.178,1.178l11.2,11.2a1.667,1.667,0,0,1-2.358,2.357L70.619,224.94a.833.833,0,1,0-1.178,1.178l9.427,9.427a1.669,1.669,0,0,1,0,2.357,1.7,1.7,0,0,1-2.357,0l-1.179-1.178h0l-7.659-7.659a.833.833,0,0,0-1.178,1.178l7.66,7.66A1.666,1.666,0,1,1,71.8,240.26L57.623,226.1c-2.161-2.161-2.63-4.885-3.044-7.289-.348-2.022-.678-3.932-1.956-5.211a.833.833,0,0,0-1.178,1.178c.9.9,1.177,2.485,1.492,4.316.433,2.517.973,5.649,3.508,8.184l14.174,14.162a3.335,3.335,0,0,0,5.627-1.708,3.4,3.4,0,0,0,3.8-.649,3.315,3.315,0,0,0,.914-1.709,3.333,3.333,0,0,0,3.8-5.362l-.316-.317a3.331,3.331,0,0,0,1.5-5.576Z" transform="translate(-46.201 -192.522)"/>
        <path id="Path_28" data-name="Path 28" class="cls-1" d="M15.589,22.333l-5-5a.833.833,0,1,0-1.178,1.178l4.411,4.411L.244,36.5a.833.833,0,1,0,1.178,1.178L15.589,23.511A.832.832,0,0,0,15.589,22.333Z" transform="translate(0 -15.422)"/>
        <path id="Path_29" data-name="Path 29" class="cls-1" d="M72.413,361.818a1.677,1.677,0,0,1-1.971-.44,1.645,1.645,0,0,1-.477-1.908.833.833,0,0,0-1.291-1.039,1.667,1.667,0,0,1-2.358-2.357.833.833,0,1,0-1.178-1.178l-.589.589a1.666,1.666,0,0,1-2.357-2.357l.589-.589a.833.833,0,0,0-1.007-1.311,1.649,1.649,0,0,1-1.939-.457,1.6,1.6,0,0,1-.492-1.884.833.833,0,0,0-1.372-.947,3.188,3.188,0,0,0,.686,4.009,3.717,3.717,0,0,0,1.67.993,3.334,3.334,0,0,0,3.848,4.6,3.33,3.33,0,0,0,4.018,2.971,3.666,3.666,0,0,0,1.069,2.045,3.5,3.5,0,0,0,2.492,1.078,3.1,3.1,0,0,0,1.43-.341.833.833,0,0,0-.773-1.476Z" transform="translate(-51.917 -313.639)"/>
      </g>
    </g>
  </g>
</svg>
