<svg xmlns="http://www.w3.org/2000/svg" viewBox="2995 1238 50 53.55">
  <defs>
    <style>
      .cls-1 {
        fill: #2e2e2e;
      }
    </style>
  </defs>
  <g id="diploma" transform="translate(2978.036 1238)">
    <g id="Group_9" data-name="Group 9" transform="translate(16.964)">
      <g id="Group_8" data-name="Group 8" transform="translate(0)">
        <path id="Path_35" data-name="Path 35" class="cls-1" d="M307.1,171.364a.893.893,0,0,0,.893.893h8.929a.893.893,0,0,0,0-1.786h-8.929A.892.892,0,0,0,307.1,171.364Z" transform="translate(-276.741 -152.634)"/>
        <path id="Path_36" data-name="Path 36" class="cls-1" d="M358.3,222.564a.893.893,0,0,0,.893.893h5.357a.893.893,0,0,0,0-1.786h-5.357A.892.892,0,0,0,358.3,222.564Z" transform="translate(-322.584 -198.477)"/>
        <path id="Path_37" data-name="Path 37" class="cls-1" d="M326.843,121.057a.893.893,0,0,0,0-1.786h-1.786a.893.893,0,0,0,0,1.786Z" transform="translate(-292.021 -106.791)"/>
        <path id="Path_38" data-name="Path 38" class="cls-1" d="M239.724,221.67a.893.893,0,0,0,0,1.786h8.929a.893.893,0,1,0,0-1.786Z" transform="translate(-215.617 -198.476)"/>
        <path id="Path_39" data-name="Path 39" class="cls-1" d="M76.1,78.58H59.134A2.682,2.682,0,0,1,56.455,75.9V34.83a.893.893,0,0,0-.893-.893A4.469,4.469,0,0,0,51.1,38.4a.893.893,0,0,0,1.786,0,2.684,2.684,0,0,1,1.786-2.526V75.9a4.469,4.469,0,0,0,4.464,4.464H76.1a.893.893,0,0,0,0-1.786Z" transform="translate(-47.527 -30.386)"/>
        <path id="Path_40" data-name="Path 40" class="cls-1" d="M154.391,172.257h12.5a.893.893,0,0,0,0-1.786h-12.5a.893.893,0,0,0,0,1.786Z" transform="translate(-139.212 -152.634)"/>
        <path id="Path_41" data-name="Path 41" class="cls-1" d="M154.391,121.057h3.571a.893.893,0,0,0,0-1.786h-3.571a.893.893,0,0,0,0,1.786Z" transform="translate(-139.212 -106.791)"/>
        <path id="Path_42" data-name="Path 42" class="cls-1" d="M229.8,119.27h-7.143a.893.893,0,1,0,0,1.786H229.8a.893.893,0,0,0,0-1.786Z" transform="translate(-200.335 -106.791)"/>
        <path id="Path_43" data-name="Path 43" class="cls-1" d="M58.928,0H25a8.045,8.045,0,0,0-8.036,8v.042a8.068,8.068,0,0,0,4.017,6.929.893.893,0,0,0,.895-1.545A6.238,6.238,0,0,1,25,1.786H58.928a6.257,6.257,0,0,1,6.25,6.25v37.5a2.6,2.6,0,0,1-.365,1.313.893.893,0,0,0,1.539.905,4.379,4.379,0,0,0,.612-2.218V8.036A8.044,8.044,0,0,0,58.928,0Z" transform="translate(-16.964)"/>
        <path id="Path_44" data-name="Path 44" class="cls-1" d="M351.945,346.494a5.357,5.357,0,1,0-5.357,5.357A5.363,5.363,0,0,0,351.945,346.494Zm-5.357,3.571a3.571,3.571,0,1,1,3.571-3.571A3.575,3.575,0,0,1,346.588,350.066Z" transform="translate(-307.302 -305.443)"/>
        <path id="Path_45" data-name="Path 45" class="cls-1" d="M316.459,435.318a.894.894,0,0,0-1.22.327l-1.922,3.331-.305-.461a.888.888,0,0,0-.691-.4l-.552-.033,1.955-3.384a.893.893,0,0,0-1.547-.893l-2.676,4.635a.893.893,0,0,0,.721,1.337l1.547.093.854,1.294a.892.892,0,0,0,.745.4h.028a.9.9,0,0,0,.746-.446l2.646-4.582A.893.893,0,0,0,316.459,435.318Z" transform="translate(-278.785 -388.016)"/>
        <path id="Path_46" data-name="Path 46" class="cls-1" d="M408.4,434.208a.893.893,0,0,0-1.547.893l1.931,3.342-.552.033a.9.9,0,0,0-.692.4l-.3.461-1.912-3.314a.893.893,0,0,0-1.547.893l2.636,4.565a.9.9,0,0,0,.746.446h.028a.9.9,0,0,0,.745-.4l.854-1.293,1.546-.094a.893.893,0,0,0,.721-1.337Z" transform="translate(-363.201 -388.375)"/>
        <path id="Path_47" data-name="Path 47" class="cls-1" d="M154.391,223.457h5.357a.893.893,0,1,0,0-1.786h-5.357a.893.893,0,0,0,0,1.786Z" transform="translate(-139.212 -198.477)"/>
        <path id="Path_48" data-name="Path 48" class="cls-1" d="M154.391,274.657h10.714a.893.893,0,0,0,0-1.786H154.391a.893.893,0,0,0,0,1.786Z" transform="translate(-139.212 -244.32)"/>
        <path id="Path_49" data-name="Path 49" class="cls-1" d="M154.194,331.613a.892.892,0,1,0,1.6-.8c-.884-1.768-1.082-3.354-.532-4.244a1.649,1.649,0,0,1,1.52-.714.724.724,0,0,1,.685.289c.665.959.033,3.879-.629,5.647a.893.893,0,0,0,1.468.945c.381-.38.795-.76,1.155-1.068v.437a.893.893,0,0,0,1.524.631,11.161,11.161,0,0,1,1.279-1.094l-.032.064a.894.894,0,0,0,.8,1.291H166.6a.893.893,0,1,0,0-1.786h-2.324a1.724,1.724,0,0,0-.161-1.205,1.242,1.242,0,0,0-1.087-.58,3.477,3.477,0,0,0-1.794.752,1.031,1.031,0,0,0-.626-.854c-.238-.1-.546-.227-1.291.221.294-1.538.38-3.312-.387-4.417a2.478,2.478,0,0,0-2.153-1.058,3.408,3.408,0,0,0-3.039,1.562C152.848,327.074,153.013,329.253,154.194,331.613Z" transform="translate(-138.921 -290.163)"/>
        <path id="Path_50" data-name="Path 50" class="cls-1" d="M300.746,273.764a.893.893,0,0,0-.893-.893h-8.929a.893.893,0,0,0,0,1.786h8.929A.893.893,0,0,0,300.746,273.764Z" transform="translate(-261.46 -244.32)"/>
      </g>
    </g>
  </g>
</svg>
