<svg id="Layer_1" data-name="Layer 1" xmlns="http://www.w3.org/2000/svg" viewBox="0 0 383 640.35"><defs><style>.cls-1{fill:#4ba82e;}.cls-2,.cls-5{fill:none;stroke:#626262;stroke-miterlimit:10;}.cls-2{stroke-width:15px;}.cls-3{fill:#ececec;}.cls-4{fill:#626262;}.cls-5{stroke-width:5px;}</style></defs><title>škoďáček</title><path class="cls-1" d="M1136.42,802.91v-246c0-103.69-84.84-188.53-188.53-188.53H942c-103.69,0-188.53,84.84-188.53,188.53v246a15.5,15.5,0,0,0,15.5,15.5h352A15.5,15.5,0,0,0,1136.42,802.91Z" transform="translate(-753.42 -178.06)"/><line class="cls-2" x1="191" y1="127.35" x2="191" y2="190.35"/><circle cx="191.15" cy="66.5" r="66.5"/><circle class="cls-3" cx="192.5" cy="66.85" r="45.5"/><circle class="cls-4" cx="191.15" cy="66.5" r="13.5"/><line class="cls-5" x1="238" y1="67.85" x2="145.5" y2="67.85"/><line class="cls-5" x1="168.23" y1="28.74" x2="215.46" y2="106.53"/><line class="cls-5" x1="168.23" y1="106.96" x2="215.46" y2="29.17"/><circle class="cls-5" cx="191.15" cy="66.5" r="46.09"/><circle class="cls-3" cx="122" cy="388.35" r="51"/><circle class="cls-3" cx="259" cy="388.35" r="51"/><path class="cls-3" d="M134,505.35H255a12,12,0,0,1,12,12v8a50,50,0,0,1-50,50H172a50,50,0,0,1-50-50v-8a12,12,0,0,1,12-12Z"/><circle cx="143.5" cy="394.85" r="6.5"/><circle cx="240.5" cy="394.85" r="6.5"/></svg>