<svg id="svg2" xmlns="http://www.w3.org/2000/svg" viewBox="0 0 200 200"><defs><style>.cls-1{fill:#fff;}.cls-2{fill:#ade0d1;}.cls-3{fill:#ddb44e;}.cls-4{fill:#dd3636;}.cls-5{fill:#4cad34;}.cls-6,.cls-7{fill:#5b5b5b;}.cls-7,.cls-8{stroke:#5b5b5b;stroke-miterlimit:10;}.cls-8{fill:#939393;}</style></defs><title>car_wrong_right_choice 3</title><rect class="cls-1" width="200" height="200"/><path class="cls-2" d="M137.5,77.45l-15.67-3.33H100.39c-1,5.89-2.33,11.65-3.68,17.38l9.62-.38L138,90.78l6.33-6.33Z"/><polygon class="cls-3" points="33.89 97.08 29.06 104.12 43.14 104.33 42.52 98.08 33.89 97.08"/><polygon class="cls-4" points="169.94 87.28 171.75 89.14 172.5 92.76 172.65 98.51 171.4 99.99 167.42 99.45 165.23 98.58 164.48 91.6 169.94 87.28"/><g id="Layer_2" data-name="Layer 2"><path class="cls-5" d="M69.72,89.68c-11.48.78-34.91,4-38.31,7.69a20.15,20.15,0,0,0-3.69,7.54c-1.49.62-1.38,2.82-.77,5.54L27.1,116l5.69,2.31L44,119.68l.21.05a14.85,14.85,0,0,1-.71-4.55,15.53,15.53,0,0,1,31,0,14.81,14.81,0,0,1-1,5.21l1.19.21,8.91-.09c-1.78-11.65-6.19-22.48-10-33.23C72.4,88.07,71.05,88.86,69.72,89.68Zm-39.83,14a13.34,13.34,0,0,1,3.91-5.12l4.57.36a2.07,2.07,0,0,1,1.5.89l1.83,3.8Z"/><path class="cls-5" d="M174.39,110.78l.62-6.15c-.41-2.08-.79-2.75-1.85-3.23.09-8.41-.64-14.12-2.92-14.62l-11.85-1.54c-8.38-3.87-17.12-8.68-24.77-10.62a104.81,104.81,0,0,0-18.77-2c-4.66.07-9.49,0-14.22,0-2.42,16-8,31-8.54,46.85l26.61-.26.77,1.08,2.92-.09a14.83,14.83,0,0,1-1.18-5.79,15.53,15.53,0,0,1,31,0,14.84,14.84,0,0,1-.65,4.34h.33l7.39-1.08,11.23-1.54c3.06-1.82,4.34-3.19,4.62-4.31ZM102,89.1c-.86-.18-1.75-.32-1.58-1.79L102.64,75H105c6.77,0,13.39.26,19.35,1.57L123,88.37ZM133.66,88l-9.71.34,1.39-11.52a31.51,31.51,0,0,1,10.9,4.74,3.26,3.26,0,0,1,1.68,3C137.33,87.08,135.83,88.1,133.66,88Zm32.77,10.4a24.64,24.64,0,0,1,0-5.85c.57-3.41,2.17-3.83,3.56-4.85,1.78.64,2.22,5.17,2.29,10.75Z"/><rect class="cls-6" x="125.02" y="92.91" width="7.07" height="1.46" rx="0.73" ry="0.73"/><ellipse class="cls-7" cx="59.04" cy="115.19" rx="13.33" ry="13.04"/><ellipse class="cls-8" cx="59.04" cy="115.19" rx="9.05" ry="8.85"/><ellipse class="cls-7" cx="136.73" cy="114.43" rx="13.33" ry="13.04"/><ellipse class="cls-8" cx="136.73" cy="114.43" rx="9.05" ry="8.85"/></g><path class="cls-2" d="M122.75,133.17"/></svg>