<svg id="svg2" xmlns="http://www.w3.org/2000/svg" viewBox="0 0 200 200"><defs><style>.cls-1{fill:#fff;}.cls-2{fill:#4cad34;}.cls-3,.cls-4{fill:#5b5b5b;}.cls-4,.cls-5{stroke:#5b5b5b;stroke-miterlimit:10;}.cls-5{fill:#939393;}.cls-6{fill:#ade0d1;}</style></defs><title>car_wrong_right_choice 2</title><rect class="cls-1" width="200" height="200"/><g id="Layer_2" data-name="Layer 2"><path class="cls-2" d="M183.14,110.49l.62-6.15c-.41-2.08-.79-2.75-1.85-3.23C182,92.7,181.28,87,179,86.49L167.14,85c-8.38-3.87-17.12-8.68-24.77-10.62a104.81,104.81,0,0,0-18.77-2c-13.43.21-28.36-.7-37.85,2.46A253.27,253.27,0,0,0,59.28,88.64c-11.48.78-34.91,4-38.31,7.69a20.15,20.15,0,0,0-3.69,7.54c-1.49.62-1.38,2.82-.77,5.54l.15,5.54,5.69,2.31,11.23,1.38.21.05a14.85,14.85,0,0,1-.71-4.55,15.53,15.53,0,0,1,31,0,14.81,14.81,0,0,1-1,5.21l1.19.21,63.08-.62.77,1.08,2.92-.09a14.83,14.83,0,0,1-1.18-5.79,15.53,15.53,0,0,1,31,0,14.84,14.84,0,0,1-.65,4.34h.33l7.39-1.08,11.23-1.54c3.06-1.82,4.34-3.19,4.62-4.31Zm-163.7-7.83a13.34,13.34,0,0,1,3.91-5.12l4.57.36a2.07,2.07,0,0,1,1.5.89l1.83,3.8Zm82.92-15.14a3.3,3.3,0,0,1-2.87,1.69l-21.71.89c3.09-2.11.55-6-2.58-5.15a40.91,40.91,0,0,1,19.13-9.22,92.81,92.81,0,0,1,12.49-.89Zm8.43,1.29c-.86-.18-1.75-.32-1.58-1.79l2.18-12.29h2.35c6.77,0,13.39.26,19.35,1.57L131.7,88.09Zm31.61-1.1-9.71.34,1.39-11.52A31.51,31.51,0,0,1,145,81.28a3.26,3.26,0,0,1,1.68,3C146.08,86.79,144.58,87.82,142.41,87.72Zm32.77,10.4a24.64,24.64,0,0,1,0-5.85c.57-3.41,2.17-3.83,3.56-4.85,1.78.64,2.22,5.17,2.29,10.75Z" transform="translate(0)"/><rect class="cls-3" x="95.76" y="93.55" width="7.09" height="1.57" rx="0.73" ry="0.73"/><rect class="cls-3" x="133.77" y="92.63" width="7.07" height="1.46" rx="0.73" ry="0.73"/><ellipse class="cls-4" cx="145.48" cy="114.15" rx="13.33" ry="13.04"/><ellipse class="cls-5" cx="145.48" cy="114.15" rx="9.05" ry="8.85"/></g><path class="cls-6" d="M122.75,133.17" transform="translate(0)"/><path class="cls-3" d="M77.79,90.1c.44,0,2.49-1.08,1.11-3.58a3,3,0,0,0-3.69-1.57S64.65,91.4,77.79,90.1Z" transform="translate(0)"/></svg>